<?xml version="1.0" encoding="UTF-8" standalone="no"?>
<!-- Uploaded to: SVG Repo, www.svgrepo.com, Generator: SVG Repo Mixer Tools -->

<svg
   width="800px"
   height="800px"
   viewBox="0 0 24 24"
   fill="none"
   version="1.1"
   id="svg4"
   sodipodi:docname="audio-success.svg"
   inkscape:version="1.4 (e7c3feb100, 2024-10-09)"
   xmlns:inkscape="http://www.inkscape.org/namespaces/inkscape"
   xmlns:sodipodi="http://sodipodi.sourceforge.net/DTD/sodipodi-0.dtd"
   xmlns="http://www.w3.org/2000/svg"
   xmlns:svg="http://www.w3.org/2000/svg">
  <defs
     id="defs4">
    <inkscape:path-effect
       effect="fillet_chamfer"
       id="path-effect2"
       is_visible="true"
       lpeversion="1"
       nodesatellites_param="F,0,0,1,0,0,0,1 @ F,0,0,1,0,0,0,1 @ F,0,0,1,0,0,0,1"
       radius="0"
       unit="px"
       method="auto"
       mode="F"
       chamfer_steps="1"
       flexible="false"
       use_knot_distance="true"
       apply_no_radius="true"
       apply_with_radius="true"
       only_selected="false"
       hide_knots="false" />
    <inkscape:path-effect
       effect="fillet_chamfer"
       id="path-effect1"
       is_visible="true"
       lpeversion="1"
       nodesatellites_param="F,0,0,1,0,0,0,1 @ F,0,0,1,0,0,0,1 @ F,0,0,1,0,0,0,1"
       radius="0"
       unit="px"
       method="auto"
       mode="F"
       chamfer_steps="1"
       flexible="false"
       use_knot_distance="true"
       apply_no_radius="true"
       apply_with_radius="true"
       only_selected="false"
       hide_knots="false" />
  </defs>
  <sodipodi:namedview
     id="namedview4"
     pagecolor="#ffffff"
     bordercolor="#000000"
     borderopacity="0.25"
     inkscape:showpageshadow="2"
     inkscape:pageopacity="0.0"
     inkscape:pagecheckerboard="0"
     inkscape:deskcolor="#d1d1d1"
     inkscape:zoom="1.4925"
     inkscape:cx="399.66499"
     inkscape:cy="362.14405"
     inkscape:window-width="2560"
     inkscape:window-height="1374"
     inkscape:window-x="0"
     inkscape:window-y="0"
     inkscape:window-maximized="1"
     inkscape:current-layer="svg4" />
  <path
     d="M 15,2 H 9 C 4,2 2,4 2,9 v 6 c 0,5 2,7 7,7 h 6 c 5,0 7,-2 7,-7 V 9"
     stroke="#292D32"
     stroke-width="1.5"
     stroke-linecap="round"
     stroke-linejoin="round"
     id="path1"
     style="stroke:#009600;stroke-opacity:1"
     sodipodi:nodetypes="cssssssc" />
  <path
     d="M9.62 17.3C10.7908 17.3 11.74 16.3509 11.74 15.1801C11.74 14.0092 10.7908 13.0601 9.62 13.0601C8.44915 13.0601 7.5 14.0092 7.5 15.1801C7.5 16.3509 8.44915 17.3 9.62 17.3Z"
     stroke="#292D32"
     stroke-width="1.5"
     stroke-linecap="round"
     stroke-linejoin="round"
     id="path2"
     style="stroke:#009600;stroke-opacity:1" />
  <path
     d="M11.74 15.18V7.77002"
     stroke="#292D32"
     stroke-width="1.5"
     stroke-linecap="round"
     stroke-linejoin="round"
     id="path3"
     style="stroke:#009600;stroke-opacity:1" />
  <path
     d="M13.13 6.7701L15.47 7.55006C16.04 7.74006 16.5 8.38006 16.5 8.98006V9.60005C16.5 10.4101 15.87 10.8601 15.11 10.6001L12.77 9.82008C12.2 9.63008 11.74 8.99009 11.74 8.39009V7.7701C11.74 6.9701 12.36 6.5101 13.13 6.7701Z"
     stroke="#292D32"
     stroke-width="1.5"
     stroke-linecap="round"
     stroke-linejoin="round"
     id="path4"
     style="stroke:#009600;stroke-opacity:1" />
  <path
     d="m 16.142411,5.7193272 1.840201,1.593687 2.913568,-3.9597991"
     style="fill:none;fill-opacity:1;stroke:#009600;stroke-width:2;stroke-linecap:round;stroke-linejoin:round;stroke-opacity:1"
     id="path1-6-6"
     sodipodi:nodetypes="ccc"
     inkscape:original-d="m 16.142411,5.7193272 1.840201,1.593687 2.913568,-3.9597991"
     inkscape:path-effect="#path-effect2"
     transform="translate(0.62311558,-1.0452261)" />
</svg>
