<?xml version="1.0" encoding="UTF-8" standalone="no"?>
<!-- Uploaded to: SVG Repo, www.svgrepo.com, Generator: SVG Repo Mixer Tools -->

<svg
   width="800px"
   height="800px"
   viewBox="0 0 400 400"
   version="1.1"
   id="svg10"
   sodipodi:docname="html-error.svg"
   inkscape:version="1.3.2 (091e20ef0f, 2023-11-25, custom)"
   xmlns:inkscape="http://www.inkscape.org/namespaces/inkscape"
   xmlns:sodipodi="http://sodipodi.sourceforge.net/DTD/sodipodi-0.dtd"
   xmlns="http://www.w3.org/2000/svg"
   xmlns:svg="http://www.w3.org/2000/svg">
  <sodipodi:namedview
     id="namedview10"
     pagecolor="#ffffff"
     bordercolor="#000000"
     borderopacity="0.25"
     inkscape:showpageshadow="2"
     inkscape:pageopacity="0.0"
     inkscape:pagecheckerboard="0"
     inkscape:deskcolor="#d1d1d1"
     inkscape:zoom="0.945"
     inkscape:cx="398.9418"
     inkscape:cy="399.4709"
     inkscape:window-width="1920"
     inkscape:window-height="1019"
     inkscape:window-x="0"
     inkscape:window-y="0"
     inkscape:window-maximized="1"
     inkscape:current-layer="svg10" />
  <defs
     id="defs1">
    <style
       id="style1">.cls-1{fill:#101010;}</style>
  </defs>
  <title
     id="title1" />
  <g
     id="xxx-word"
     style="fill:#c80000;fill-opacity:1">
    <path
       class="cls-1"
       d="M325,105H250a5,5,0,0,1-5-5V25a5,5,0,1,1,10,0V95h70a5,5,0,0,1,0,10Z"
       id="path1"
       style="fill:#c80000;fill-opacity:1" />
    <path
       class="cls-1"
       d="M325,154.83a5,5,0,0,1-5-5V102.07L247.93,30H100A20,20,0,0,0,80,50v98.17a5,5,0,0,1-10,0V50a30,30,0,0,1,30-30H250a5,5,0,0,1,3.54,1.46l75,75A5,5,0,0,1,330,100v49.83A5,5,0,0,1,325,154.83Z"
       id="path2"
       style="fill:#c80000;fill-opacity:1" />
    <path
       class="cls-1"
       d="M300,380H100a30,30,0,0,1-30-30V275a5,5,0,0,1,10,0v75a20,20,0,0,0,20,20H300a20,20,0,0,0,20-20V275a5,5,0,0,1,10,0v75A30,30,0,0,1,300,380Z"
       id="path3"
       style="fill:#c80000;fill-opacity:1" />
    <path
       class="cls-1"
       d="M275,280H125a5,5,0,1,1,0-10H275a5,5,0,0,1,0,10Z"
       id="path4"
       style="fill:#c80000;fill-opacity:1" />
    <path
       class="cls-1"
       d="M200,330H125a5,5,0,1,1,0-10h75a5,5,0,0,1,0,10Z"
       id="path5"
       style="fill:#c80000;fill-opacity:1" />
    <path
       class="cls-1"
       d="M325,280H75a30,30,0,0,1-30-30V173.17a30,30,0,0,1,30-30h.2l250,1.66a30.09,30.09,0,0,1,29.81,30V250A30,30,0,0,1,325,280ZM75,153.17a20,20,0,0,0-20,20V250a20,20,0,0,0,20,20H325a20,20,0,0,0,20-20V174.83a20.06,20.06,0,0,0-19.88-20l-250-1.66Z"
       id="path6"
       style="fill:#c80000;fill-opacity:1" />
    <path
       class="cls-1"
       d="M148.48,236h-9.61V212.84H118.52V236h-9.61V182.68h9.61v21.91h20.35V182.68h9.61Z"
       id="path7"
       style="fill:#c80000;fill-opacity:1" />
    <path
       class="cls-1"
       d="M178.83,236H168.52V190.92H154.34v-8.24H193v8.24H178.83Z"
       id="path8"
       style="fill:#c80000;fill-opacity:1" />
    <path
       class="cls-1"
       d="M251.17,236h-9.8V189.32L226.6,236h-5l-14.84-46.68V236h-7.85V182.68h15L225.08,217l11-34.34h15.12Z"
       id="path9"
       style="fill:#c80000;fill-opacity:1" />
    <path
       class="cls-1"
       d="M295.74,236H262.93V182.68H273v44.61h22.7Z"
       id="path10"
       style="fill:#c80000;fill-opacity:1" />
  </g>
  <path
     d="m 101.74366,51.114927 35.5373,36.437579 m 0,0 35.53729,36.437574 M 137.28096,87.552506 172.81825,51.114927 m -35.53729,36.437579 -35.5373,36.437574"
     style="stroke:#c80000;stroke-width:28.7877;stroke-linecap:round;stroke-linejoin:round;stroke-opacity:1"
     id="path1-0" />
</svg>
